<svg width="1280" height="528" viewBox="0 0 1280 528" fill="none" xmlns="http://www.w3.org/2000/svg">
<g opacity="0.6" filter="url(#filter0_f_17_2526)">
<ellipse cx="383.076" cy="255.605" rx="383.076" ry="255.605" transform="matrix(1 0 0 -1 200.531 343.168)" fill="#360269"/>
</g>
<g opacity="0.6" filter="url(#filter1_f_17_2526)">
<ellipse cx="255.605" cy="255.605" rx="255.605" ry="255.605" transform="matrix(1 0 0 -1 31.6719 243.839)" fill="#52178C"/>
</g>
<g filter="url(#filter2_f_17_2526)">
<path d="M449.739 125.912C324.827 126.924 159.962 74.3274 181.202 -232.148C529.474 -252.714 1231.28 -293.443 1252.32 -291.824C1278.61 -289.801 1480.4 -19.2334 1487.98 -11.6474C1495.57 -4.0614 1529.45 64.7185 1311.99 241.726C1094.53 418.733 910.955 282.564 783.514 193.175C656.073 103.786 574.652 124.901 449.739 125.912Z" fill="#872AF3"/>
</g>
<mask id="mask0_17_2526" style="mask-type:alpha" maskUnits="userSpaceOnUse" x="740" y="-152" width="566" height="491">
<ellipse cx="320.86" cy="191.89" rx="320.86" ry="191.89" transform="matrix(0.806079 0.591808 0.591808 -0.806079 650.645 58.2254)" fill="url(#paint0_radial_17_2526)"/>
</mask>
<g mask="url(#mask0_17_2526)">
<path d="M741.86 -78.1437C701.832 -93.5071 693.037 -109.245 669.359 -146.13L1054.65 -289.271C1152.82 -139.906 1322.97 146.125 1255.41 173.166C1184.71 201.461 1076.93 189.676 1010.83 157.286C944.728 124.897 891.46 16.7603 866.434 -21.7253C843.249 -57.381 781.888 -62.7803 741.86 -78.1437Z" fill="#B87EFF"/>
<g filter="url(#filter3_f_17_2526)">
<path d="M741.86 -77.4816C701.832 -92.845 693.037 -108.583 669.359 -145.468L1054.65 -288.609C1152.82 -139.244 1298.79 190.311 1231.23 217.352C1177.8 238.734 1080.69 187.339 1030.91 157.807C1014.82 148.259 1026.21 137.439 1016.13 136.758C942.684 131.801 891.46 17.4225 866.434 -21.0631C843.249 -56.7188 781.888 -62.1182 741.86 -77.4816Z" fill="#B87EFF"/>
</g>
<g filter="url(#filter4_f_17_2526)">
<path d="M731.266 -72.8462C691.238 -88.2096 682.443 -103.948 658.766 -140.833L1054.65 -289.271C1152.82 -139.906 1238.22 162.018 1170.65 189.058C1107.27 214.423 1070.57 184.308 1019.33 154.877C1013.41 151.477 1022.97 150.046 1016.13 146.691C950.027 114.302 880.866 22.0579 855.84 -16.4277C832.655 -52.0835 771.294 -57.4828 731.266 -72.8462Z" fill="#B87EFF"/>
</g>
<g filter="url(#filter5_f_17_2526)">
<path d="M720.67 -67.5487C680.642 -82.9121 671.847 -98.6501 648.17 -135.535L1054.65 -289.271C1152.82 -139.906 1338.87 199.1 1271.3 226.141C1214.28 248.964 1113.39 193.516 1050.78 169.074C1035.77 163.214 1026.92 151.631 1014.14 145.367C948.04 112.977 870.27 27.3554 845.245 -11.1302C822.059 -46.786 760.698 -52.1853 720.67 -67.5487Z" fill="#B87EFF"/>
</g>
<g filter="url(#filter6_f_17_2526)">
<path d="M686.899 -53.0799C646.871 -68.4433 638.076 -84.1813 614.398 -121.067L1031.47 -285.397C1129.64 -136.032 1215.04 165.891 1147.47 192.931C1095.07 213.903 1055.23 170.753 1030.25 155.238C1021.53 149.821 1046.54 140.538 1027.6 140.538C954.433 140.538 968.265 63.5191 847.82 12.7354C808.63 -3.78847 726.927 -37.7165 686.899 -53.0799Z" fill="#B87EFF"/>
</g>
</g>
<g opacity="0.6" filter="url(#filter7_f_17_2526)">
<ellipse cx="108.93" cy="108.93" rx="108.93" ry="108.93" transform="matrix(1 0 0 -1 989.859 106.766)" fill="#741AD6"/>
</g>
<g opacity="0.3" filter="url(#filter8_f_17_2526)">
<ellipse cx="244.017" cy="108.93" rx="244.017" ry="108.93" transform="matrix(1 0 0 -1 373.361 104.117)" fill="#0C0E12"/>
</g>
<g opacity="0.6" filter="url(#filter9_f_17_2526)">
<ellipse cx="108.93" cy="32.2601" rx="108.93" ry="32.2601" transform="matrix(0.751905 0.659272 0.659271 -0.751905 742.201 -20.9702)" fill="#52178C"/>
</g>
<mask id="mask1_17_2526" style="mask-type:alpha" maskUnits="userSpaceOnUse" x="-214" y="-354" width="975" height="645">
<path d="M-72.5032 -353.91C-108.899 -143.869 -211.344 172.132 -214.001 182.445L760.528 290.957L714.157 -216.269L-72.5032 -353.91Z" fill="url(#paint1_linear_17_2526)"/>
</mask>
<g mask="url(#mask1_17_2526)">
<path d="M218.451 140.736C307.175 156.26 390.638 118.644 398.586 73.2193C406.534 27.7945 381.048 -38.1017 285.854 -54.7577C238.68 -63.0115 186.716 -103.399 126.712 -90.5843C65.6304 -77.5397 67.7634 -13.316 63.7541 9.59865C55.8062 55.0235 129.726 125.212 218.451 140.736Z" fill="#9945FF"/>
<g filter="url(#filter10_f_17_2526)">
<path d="M218.069 136.659C313.225 153.308 388.946 121.671 395.777 82.6257C402.609 43.5799 375.673 -13.9422 280.518 -30.5914C233.364 -38.8419 180.854 -75.976 121.429 -66.3344C60.9362 -56.5195 64.5862 -0.997006 61.1399 18.6997C54.3081 57.7454 122.914 120.01 218.069 136.659Z" fill="#9945FF"/>
</g>
<g filter="url(#filter11_f_17_2526)">
<path d="M220.952 137.163C327.603 155.824 413.325 115.484 421.747 67.345C430.17 19.2064 400.985 -51.0072 294.334 -69.6678C241.484 -78.9149 183.947 -128.059 116.962 -115.073C48.7731 -101.854 51.1074 -29.5844 46.8585 -5.30081C38.4358 42.8378 114.301 118.503 220.952 137.163Z" fill="#9945FF"/>
</g>
<g filter="url(#filter12_f_17_2526)">
<path d="M234.257 133.616C367.998 144.847 487.992 101.495 497.85 45.1547C507.708 -11.1852 451.532 -83.7853 323.626 -106.165C260.242 -117.255 189.505 -192.916 109.291 -178.036C27.6354 -162.889 31.6217 -82.998 26.6489 -54.5772C16.7912 1.76272 79.325 120.605 234.257 133.616Z" fill="#9945FF"/>
</g>
<g filter="url(#filter13_f_17_2526)">
<path d="M282.611 118.577C420.332 142.674 551.597 90.83 561.234 35.746C570.872 -19.3379 509.331 -91.4775 371.609 -115.574C303.361 -127.516 224.174 -163.037 138.29 -149.793C50.8638 -136.312 56.4874 -57.9001 51.6255 -30.113C41.9876 24.971 144.889 94.4799 282.611 118.577Z" fill="#9945FF"/>
</g>
<g filter="url(#filter14_f_17_2526)">
<path d="M340.06 105.968C482.383 130.87 617.897 78.0643 627.755 21.7243C637.613 -34.6156 573.905 -108.534 431.582 -133.436C361.054 -145.776 279.182 -182.26 190.48 -168.865C100.185 -155.23 106.136 -74.9955 101.163 -46.5747C91.3055 9.76526 197.737 81.0663 340.06 105.968Z" fill="#9945FF"/>
</g>
<g filter="url(#filter15_f_17_2526)">
<path d="M231.447 96.198C355.98 117.987 476.179 62.5016 486.036 6.16162C495.894 -50.1783 441.482 -122.47 316.949 -144.259C255.237 -155.057 182.93 -183.154 104.702 -167.926C25.0691 -152.425 28.5956 -72.6148 23.6228 -44.194C13.7651 12.1459 106.915 74.4088 231.447 96.198Z" fill="#9945FF"/>
</g>
</g>
<defs>
<filter id="filter0_f_17_2526" x="-211.469" y="-580.043" width="1590.15" height="1335.21" filterUnits="userSpaceOnUse" color-interpolation-filters="sRGB">
<feFlood flood-opacity="0" result="BackgroundImageFix"/>
<feBlend mode="normal" in="SourceGraphic" in2="BackgroundImageFix" result="shape"/>
<feGaussianBlur stdDeviation="206" result="effect1_foregroundBlur_17_2526"/>
</filter>
<filter id="filter1_f_17_2526" x="-380.328" y="-679.371" width="1335.21" height="1335.21" filterUnits="userSpaceOnUse" color-interpolation-filters="sRGB">
<feFlood flood-opacity="0" result="BackgroundImageFix"/>
<feBlend mode="normal" in="SourceGraphic" in2="BackgroundImageFix" result="shape"/>
<feGaussianBlur stdDeviation="206" result="effect1_foregroundBlur_17_2526"/>
</filter>
<filter id="filter2_f_17_2526" x="23.3398" y="-447.871" width="1627.11" height="931.809" filterUnits="userSpaceOnUse" color-interpolation-filters="sRGB">
<feFlood flood-opacity="0" result="BackgroundImageFix"/>
<feBlend mode="normal" in="SourceGraphic" in2="BackgroundImageFix" result="shape"/>
<feGaussianBlur stdDeviation="78" result="effect1_foregroundBlur_17_2526"/>
</filter>
<filter id="filter3_f_17_2526" x="649.359" y="-308.609" width="619.125" height="551.026" filterUnits="userSpaceOnUse" color-interpolation-filters="sRGB">
<feFlood flood-opacity="0" result="BackgroundImageFix"/>
<feBlend mode="normal" in="SourceGraphic" in2="BackgroundImageFix" result="shape"/>
<feGaussianBlur stdDeviation="10" result="effect1_foregroundBlur_17_2526"/>
</filter>
<filter id="filter4_f_17_2526" x="630.766" y="-317.271" width="592.07" height="543.851" filterUnits="userSpaceOnUse" color-interpolation-filters="sRGB">
<feFlood flood-opacity="0" result="BackgroundImageFix"/>
<feBlend mode="normal" in="SourceGraphic" in2="BackgroundImageFix" result="shape"/>
<feGaussianBlur stdDeviation="14" result="effect1_foregroundBlur_17_2526"/>
</filter>
<filter id="filter5_f_17_2526" x="612.17" y="-325.271" width="709.572" height="592.807" filterUnits="userSpaceOnUse" color-interpolation-filters="sRGB">
<feFlood flood-opacity="0" result="BackgroundImageFix"/>
<feBlend mode="normal" in="SourceGraphic" in2="BackgroundImageFix" result="shape"/>
<feGaussianBlur stdDeviation="18" result="effect1_foregroundBlur_17_2526"/>
</filter>
<filter id="filter6_f_17_2526" x="562.398" y="-337.397" width="661.26" height="587.967" filterUnits="userSpaceOnUse" color-interpolation-filters="sRGB">
<feFlood flood-opacity="0" result="BackgroundImageFix"/>
<feBlend mode="normal" in="SourceGraphic" in2="BackgroundImageFix" result="shape"/>
<feGaussianBlur stdDeviation="26" result="effect1_foregroundBlur_17_2526"/>
</filter>
<filter id="filter7_f_17_2526" x="777.859" y="-323.094" width="641.859" height="641.86" filterUnits="userSpaceOnUse" color-interpolation-filters="sRGB">
<feFlood flood-opacity="0" result="BackgroundImageFix"/>
<feBlend mode="normal" in="SourceGraphic" in2="BackgroundImageFix" result="shape"/>
<feGaussianBlur stdDeviation="106" result="effect1_foregroundBlur_17_2526"/>
</filter>
<filter id="filter8_f_17_2526" x="161.361" y="-325.743" width="912.033" height="641.86" filterUnits="userSpaceOnUse" color-interpolation-filters="sRGB">
<feFlood flood-opacity="0" result="BackgroundImageFix"/>
<feBlend mode="normal" in="SourceGraphic" in2="BackgroundImageFix" result="shape"/>
<feGaussianBlur stdDeviation="106" result="effect1_foregroundBlur_17_2526"/>
</filter>
<filter id="filter9_f_17_2526" x="548.732" y="-261.233" width="593.283" height="575.642" filterUnits="userSpaceOnUse" color-interpolation-filters="sRGB">
<feFlood flood-opacity="0" result="BackgroundImageFix"/>
<feBlend mode="normal" in="SourceGraphic" in2="BackgroundImageFix" result="shape"/>
<feGaussianBlur stdDeviation="106" result="effect1_foregroundBlur_17_2526"/>
</filter>
<filter id="filter10_f_17_2526" x="53.1319" y="-75.4602" width="351.189" height="224.201" filterUnits="userSpaceOnUse" color-interpolation-filters="sRGB">
<feFlood flood-opacity="0" result="BackgroundImageFix"/>
<feBlend mode="normal" in="SourceGraphic" in2="BackgroundImageFix" result="shape"/>
<feGaussianBlur stdDeviation="3.76999" result="effect1_foregroundBlur_17_2526"/>
</filter>
<filter id="filter11_f_17_2526" x="19.8308" y="-143.633" width="429.67" height="311.839" filterUnits="userSpaceOnUse" color-interpolation-filters="sRGB">
<feFlood flood-opacity="0" result="BackgroundImageFix"/>
<feBlend mode="normal" in="SourceGraphic" in2="BackgroundImageFix" result="shape"/>
<feGaussianBlur stdDeviation="13.195" result="effect1_foregroundBlur_17_2526"/>
</filter>
<filter id="filter12_f_17_2526" x="-12.0514" y="-217.667" width="548.702" height="390.763" filterUnits="userSpaceOnUse" color-interpolation-filters="sRGB">
<feFlood flood-opacity="0" result="BackgroundImageFix"/>
<feBlend mode="normal" in="SourceGraphic" in2="BackgroundImageFix" result="shape"/>
<feGaussianBlur stdDeviation="18.8499" result="effect1_foregroundBlur_17_2526"/>
</filter>
<filter id="filter13_f_17_2526" x="-50.7897" y="-254.496" width="714.79" height="480.927" filterUnits="userSpaceOnUse" color-interpolation-filters="sRGB">
<feFlood flood-opacity="0" result="BackgroundImageFix"/>
<feBlend mode="normal" in="SourceGraphic" in2="BackgroundImageFix" result="shape"/>
<feGaussianBlur stdDeviation="50.8948" result="effect1_foregroundBlur_17_2526"/>
</filter>
<filter id="filter14_f_17_2526" x="-152.06" y="-424.365" width="1033.39" height="789.255" filterUnits="userSpaceOnUse" color-interpolation-filters="sRGB">
<feFlood flood-opacity="0" result="BackgroundImageFix"/>
<feBlend mode="normal" in="SourceGraphic" in2="BackgroundImageFix" result="shape"/>
<feGaussianBlur stdDeviation="126.295" result="effect1_foregroundBlur_17_2526"/>
</filter>
<filter id="filter15_f_17_2526" x="-93.9614" y="-289.221" width="697.999" height="507.137" filterUnits="userSpaceOnUse" color-interpolation-filters="sRGB">
<feFlood flood-opacity="0" result="BackgroundImageFix"/>
<feBlend mode="normal" in="SourceGraphic" in2="BackgroundImageFix" result="shape"/>
<feGaussianBlur stdDeviation="58.4348" result="effect1_foregroundBlur_17_2526"/>
</filter>
<radialGradient id="paint0_radial_17_2526" cx="0" cy="0" r="1" gradientTransform="matrix(-54.9892 222.617 -372.171 -32.1569 375.849 161.162)" gradientUnits="userSpaceOnUse">
<stop offset="0.120131" stop-color="#C4C4C4"/>
<stop offset="0.692585" stop-color="#C4C4C4" stop-opacity="0"/>
</radialGradient>
<linearGradient id="paint1_linear_17_2526" x1="184.5" y1="114.586" x2="255.846" y2="-229.397" gradientUnits="userSpaceOnUse">
<stop stop-color="#C4C4C4"/>
<stop offset="1" stop-color="#C4C4C4" stop-opacity="0"/>
</linearGradient>
</defs>
</svg>
