<svg width="16" height="16" viewBox="0 0 16 16" fill="none" xmlns="http://www.w3.org/2000/svg">
<g clip-path="url(#clip0_234_1622)">
<path d="M10.1501 3.17163L11.4188 4.44029L13.9561 1.90297M13.9561 7.61193V10.9104C13.9561 11.9762 13.9561 12.5091 13.7487 12.9162C13.5662 13.2742 13.2751 13.5654 12.9171 13.7478C12.51 13.9552 11.9771 13.9552 10.9113 13.9552H4.31431C3.24854 13.9552 2.71565 13.9552 2.30858 13.7478C1.95051 13.5654 1.65939 13.2742 1.47694 12.9162C1.26953 12.5091 1.26953 11.9762 1.26953 10.9104V4.31342C1.26953 3.24765 1.26953 2.71477 1.47694 2.30769C1.65939 1.94962 1.95051 1.6585 2.30858 1.47606C2.71565 1.26865 3.24854 1.26865 4.31431 1.26865H7.61281M1.36183 12.6398C1.65942 11.5692 2.64131 10.7836 3.8067 10.7836H8.247C8.83648 10.7836 9.13123 10.7836 9.37633 10.8323C10.3829 11.0325 11.1697 11.8194 11.3699 12.8259C11.4186 13.071 11.4186 13.3657 11.4186 13.9552M8.88147 6.02611C8.88147 7.42743 7.74548 8.56342 6.34416 8.56342C4.94284 8.56342 3.80684 7.42743 3.80684 6.02611C3.80684 4.62479 4.94284 3.4888 6.34416 3.4888C7.74548 3.4888 8.88147 4.62479 8.88147 6.02611Z" stroke="#CECFD2" stroke-width="1.26866" stroke-linecap="round" stroke-linejoin="round"/>
</g>
<defs>
<clipPath id="clip0_234_1622">
<rect width="15.2239" height="15.2239" fill="white"/>
</clipPath>
</defs>
</svg>
