<svg width="24" height="24" viewBox="0 0 24 24" fill="none" xmlns="http://www.w3.org/2000/svg">
<path fill-rule="evenodd" clip-rule="evenodd" d="M3.65329 0.835419C1.91857 1.78546 0 5.27549 0 7.47969C0 9.22033 1.53194 11.7745 2.16029 11.0811C2.3874 10.8305 2.86867 9.69262 3.22989 8.55203C4.46928 4.63667 5.18577 4.34674 13.6285 4.34674H21.1049L22.1766 2.57224C22.766 1.596 23.2489 0.613743 23.25 0.388245C23.2511 0.162747 19.1765 -0.0114262 14.1946 0.000585835C7.23034 0.0175118 4.79427 0.210249 3.65329 0.835419ZM7.30713 10.1464C6.85722 11.234 6.48898 12.2168 6.48898 12.3303C6.48898 12.4439 8.314 12.5367 10.5446 12.5367C14.8262 12.5367 15.3216 12.9004 13.5187 14.7207C12.6454 15.6025 11.7164 15.8127 8.69306 15.8127H4.94947L3.63437 19.9077C2.91085 22.16 2.46635 24.0016 2.64642 24C2.82649 23.9984 5.71084 22.4182 9.05536 20.4892C15.8412 16.5749 19.4296 13.8286 20.5701 11.6768C21.2746 10.3478 21.2352 10.1545 20.0704 9.20232C19.0208 8.34401 17.8998 8.16874 13.4662 8.16874H8.12582L7.30713 10.1464Z" fill="url(#paint0_linear_234_2444)"/>
<defs>
<linearGradient id="paint0_linear_234_2444" x1="0" y1="0" x2="24.7066" y2="6.10576" gradientUnits="userSpaceOnUse">
<stop stop-color="#14F195"/>
<stop offset="1" stop-color="#9945FF"/>
</linearGradient>
</defs>
</svg>
