<svg width="7" height="7" viewBox="0 0 7 7" fill="none" xmlns="http://www.w3.org/2000/svg">
<path fill-rule="evenodd" clip-rule="evenodd" d="M0.965578 0.220804C0.507086 0.471903 0 1.39433 0 1.97691C0 2.43697 0.404897 3.11205 0.570972 2.92877C0.630999 2.86254 0.758199 2.56179 0.85367 2.26033C1.18125 1.22549 1.37062 1.14886 3.60205 1.14886H5.57809L5.86136 0.679853C6.01714 0.421827 6.14477 0.162214 6.14506 0.102615C6.14534 0.0430147 5.06843 -0.00301997 3.75169 0.000154838C1.911 0.00462844 1.26714 0.0555696 0.965578 0.220804ZM1.9313 2.68172C1.81239 2.96918 1.71506 3.22894 1.71506 3.25895C1.71506 3.28897 2.19742 3.3135 2.78697 3.3135C3.91862 3.3135 4.04954 3.40961 3.57304 3.89074C3.34222 4.1238 3.09668 4.17936 2.29761 4.17936H1.30816L0.960576 5.26168C0.769347 5.85696 0.651865 6.34372 0.699458 6.34328C0.747051 6.34285 1.50939 5.92522 2.39336 5.41537C4.18689 4.38082 5.13531 3.65494 5.43674 3.08622C5.62296 2.73497 5.61253 2.68388 5.30468 2.4322C5.02727 2.20535 4.73099 2.15903 3.55918 2.15903H2.14768L1.9313 2.68172Z" fill="white"/>
</svg>
